<svg xmlns="http://www.w3.org/2000/svg" viewBox="0 0 64 64" width="64" height="64" role="img" aria-label="MeowKit favicon">
  <defs>
    <linearGradient id="favGradO" x1="0" y1="0" x2="1" y2="1">
      <stop offset="0%" stop-color="#1D4ED8"></stop>
      <stop offset="100%" stop-color="#3B82F6"></stop>
    </linearGradient>
  </defs>
  <rect width="64" height="64" rx="14" fill="url(#favGradO)"></rect>
  
  <g fill="#ffffff" transform="translate(4 6)">
    <path d="M29.11 13.23L9.98 52.81L5.96 51.00L25.14 11.36L29.11 13.23ZM51.52 23.54L51.52 23.54Q52.87 23.54 53.96 24.13Q55.04 24.71 55.66 26.19Q56.28 27.67 56.28 30.29L56.28 30.29L56.28 48L51.79 48L51.79 30.99Q51.79 29.11 51.53 28.30Q51.27 27.49 50.19 27.49L50.19 27.49Q49.33 27.49 48.44 28.02Q47.55 28.55 46.67 29.84L46.67 29.84L46.67 48L42.58 48L42.58 30.99Q42.58 29.11 42.33 28.30Q42.07 27.49 40.98 27.49L40.98 27.49Q40.10 27.49 39.22 28.02Q38.34 28.55 37.46 29.84L37.46 29.84L37.46 48L32.95 48L32.95 24.17L36.76 24.17L37.10 26.74Q38.12 25.32 39.30 24.43Q40.49 23.54 42.20 23.54L42.20 23.54Q43.55 23.54 44.66 24.21Q45.77 24.87 46.29 26.59L46.29 26.59Q47.30 25.23 48.54 24.39Q49.78 23.54 51.52 23.54Z"></path>
  </g>
</svg>