<svg xmlns="http://www.w3.org/2000/svg" viewBox="0 0 230 80" width="230" height="80" role="img" aria-label="/meow (dark)">
  <defs>
    <linearGradient id="mkGradD" x1="0" y1="0" x2="1" y2="1">
      <stop offset="0%" stop-color="#93C5FD"></stop>
      <stop offset="100%" stop-color="#60A5FA"></stop>
    </linearGradient>
  </defs>
  <path fill="#60A5FA" d="M44.53 11.42L16.70 68.99L10.86 66.37L38.75 8.70L44.53 11.42Z"></path>
  <path fill="url(#mkGradD)" d="M73.74 26.42L73.74 26.42Q75.70 26.42 77.28 27.28Q78.86 28.13 79.76 30.28Q80.66 32.43 80.66 36.24L80.66 36.24L80.66 62L74.13 62L74.13 37.25Q74.13 34.53 73.75 33.35Q73.37 32.17 71.80 32.17L71.80 32.17Q70.55 32.17 69.26 32.94Q67.96 33.71 66.68 35.58L66.68 35.58L66.68 62L60.74 62L60.74 37.25Q60.74 34.53 60.36 33.35Q59.98 32.17 58.41 32.17L58.41 32.17Q57.13 32.17 55.85 32.94Q54.57 33.71 53.29 35.58L53.29 35.58L53.29 62L46.72 62L46.72 27.34L52.27 27.34L52.76 31.08Q54.24 29.02 55.96 27.72Q57.69 26.42 60.18 26.42L60.18 26.42Q62.15 26.42 63.76 27.39Q65.37 28.36 66.12 30.85L66.12 30.85Q67.60 28.88 69.40 27.65Q71.21 26.42 73.74 26.42ZM118.31 47.03L95.33 47.03Q95.66 52.38 98.33 54.78Q101.01 57.18 104.78 57.18L104.78 57.18Q107.31 57.18 109.49 56.39Q111.68 55.60 113.87 54.16L113.87 54.16L117.06 58.55Q114.63 60.52 111.38 61.70Q108.13 62.89 104.42 62.89L104.42 62.89Q99.01 62.89 95.28 60.59Q91.56 58.29 89.64 54.19Q87.72 50.09 87.72 44.70L87.72 44.70Q87.72 39.49 89.62 35.37Q91.52 31.25 95.07 28.83Q98.61 26.42 103.54 26.42L103.54 26.42Q110.43 26.42 114.45 31.05Q118.47 35.68 118.47 43.75L118.47 43.75Q118.47 44.64 118.42 45.51Q118.37 46.38 118.31 47.03L118.31 47.03ZM103.60 31.87L103.60 31.87Q100.16 31.87 97.89 34.33Q95.63 36.79 95.30 42.01L95.30 42.01L111.35 42.01Q111.25 37.12 109.26 34.50Q107.28 31.87 103.60 31.87ZM142.49 26.42L142.49 26.42Q150.11 26.42 154.11 31.38Q158.12 36.33 158.12 44.61L158.12 44.61Q158.12 50.12 156.30 54.22Q154.47 58.32 150.98 60.61Q147.48 62.89 142.46 62.89L142.46 62.89Q134.88 62.89 130.84 57.98Q126.81 53.07 126.81 44.67L126.81 44.67Q126.81 39.29 128.63 35.17Q130.45 31.05 133.96 28.74Q137.47 26.42 142.49 26.42ZM142.49 32.13L142.49 32.13Q138.52 32.13 136.52 35.17Q134.52 38.21 134.52 44.67L134.52 44.67Q134.52 51.14 136.50 54.17Q138.49 57.21 142.46 57.21L142.46 57.21Q146.43 57.21 148.42 54.16Q150.40 51.10 150.40 44.61L150.40 44.61Q150.40 38.21 148.43 35.17Q146.47 32.13 142.49 32.13ZM200.75 27.34L195.11 62L185.92 62L182.01 37.38L177.81 62L168.82 62L162.94 27.34L170.03 27.34L173.64 57.44L178.47 31.74L185.82 31.74L190.31 57.44L193.92 27.34L200.75 27.34Z"></path>
  <rect x="208" y="12" width="6" height="54" fill="#60A5FA"></rect>
</svg>